<?xml version="1.0" encoding="utf-8"?>
<!-- Generator: Adobe Illustrator 21.1.0, SVG Export Plug-In . SVG Version: 6.00 Build 0)  -->
<!DOCTYPE svg PUBLIC "-//W3C//DTD SVG 1.1//EN" "http://www.w3.org/Graphics/SVG/1.1/DTD/svg11.dtd">
<svg version="1.1" id="Layer_1" xmlns="http://www.w3.org/2000/svg" xmlns:xlink="http://www.w3.org/1999/xlink" x="0px" y="0px"
	 viewBox="0 0 80 24" style="enable-background:new 0 0 80 24;" xml:space="preserve">
<style type="text/css">
	.st0{fill:#CC1213;}
</style>
<path id="path-1" class="st0" d="M78.3,19.2c-1.2,0-1.7-0.8-1.7-2.5V4.9c0-1.7,0.5-2.5,1.7-2.5c1.2,0,1.7,0.8,1.7,2.5v11.8
	C80,18.3,79.5,19.2,78.3,19.2z M68,24c-3.2,0-5.1-1.2-5.1-2.5c0-0.9,0.6-1.5,1.5-1.5c0.9,0,1.9,0.9,3.7,0.9c1.7,0,2.7-1,2.7-2.9
	c0-0.1,0-0.3,0-0.4c-0.7,1.1-1.8,1.6-3.1,1.6c-2.7,0-5-2.5-5-6c0-3.5,2.4-6.1,5.4-6.1c1.2,0,2.1,0.4,2.8,1.2c0.4-0.7,1-1.1,1.5-1.1
	c1.2,0,1.7,0.8,1.7,2.5v6.9c0,2.1-0.1,3.7-0.8,4.8C72.3,23.1,70.5,24,68,24z M68.5,10.4c-1.3,0-2.3,1.1-2.3,2.8c0,1.8,1,2.9,2.3,2.9
	c1.3,0,2.3-1.1,2.3-2.9C70.8,11.5,69.8,10.4,68.5,10.4z M54.9,24c-3.2,0-5.1-1.2-5.1-2.5c0-0.9,0.6-1.5,1.5-1.5
	c0.9,0,1.9,0.9,3.7,0.9c1.7,0,2.7-1,2.7-2.9c0-0.1,0-0.3,0-0.4c-0.7,1.1-1.8,1.6-3.1,1.6c-2.7,0-5-2.5-5-6c0-3.5,2.4-6.1,5.4-6.1
	c1.2,0,2.1,0.4,2.8,1.2c0.4-0.7,1-1.1,1.5-1.1C60.5,7.2,61,8,61,9.7v6.9c0,2.1-0.1,3.7-0.8,4.8C59.2,23.1,57.4,24,54.9,24z
	 M55.4,10.4c-1.3,0-2.3,1.1-2.3,2.8c0,1.8,1,2.9,2.3,2.9s2.3-1.1,2.3-2.9C57.7,11.5,56.7,10.4,55.4,10.4z M42.8,19.4
	c-3.4,0-5.8-2.6-5.8-6.2S39.4,7,42.8,7c3.4,0,5.8,2.6,5.8,6.2S46.2,19.4,42.8,19.4z M42.8,10.3c-1.3,0-2.3,1.1-2.3,2.9
	c0,1.8,1,2.9,2.3,2.9c1.3,0,2.3-1.1,2.3-2.9C45,11.4,44,10.3,42.8,10.3z M34.7,10.6h-0.3v6.1c0,1.7-0.5,2.5-1.7,2.5
	c-1.2,0-1.7-0.8-1.7-2.5v-6.1h-0.1c-1.2,0-1.9-0.6-1.9-1.5c0-0.9,0.7-1.5,2.1-1.5V6c0-1.7,0.5-2.5,1.7-2.5c1.2,0,1.7,0.8,1.7,2.5
	v1.5h0.3c1.4,0,2.2,0.6,2.2,1.5C36.9,10,36.2,10.6,34.7,10.6z M11.9,23.7C5.3,23.7,0,18.4,0,11.8S5.3,0,11.9,0
	c6.5,0,11.9,5.3,11.9,11.8S18.4,23.7,11.9,23.7z M12.7,4.6H11v8.2h1.7V4.6z M13.4,6.5v1.7c1.6,0.6,2.7,2.1,2.7,3.9
	c0,2.3-1.9,4.2-4.2,4.2s-4.2-1.9-4.2-4.2c0-1.8,1.1-3.3,2.7-3.9V6.5c-2.5,0.7-4.3,2.9-4.3,5.6c0,3.2,2.6,5.8,5.8,5.8
	s5.8-2.6,5.8-5.8C17.7,9.5,15.8,7.2,13.4,6.5z"/>
</svg>
