<?xml version="1.0" encoding="utf-8"?>
<!-- Generator: Adobe Illustrator 16.0.0, SVG Export Plug-In . SVG Version: 6.00 Build 0)  -->
<!DOCTYPE svg PUBLIC "-//W3C//DTD SVG 1.1//EN" "http://www.w3.org/Graphics/SVG/1.1/DTD/svg11.dtd">
<svg version="1.1" xmlns="http://www.w3.org/2000/svg" xmlns:xlink="http://www.w3.org/1999/xlink" x="0px" y="0px" width="646px"
	 height="220px" viewBox="0 0 646 220" enable-background="new 0 0 646 220" xml:space="preserve">
<g>
	<g>
		<path d="M244.275,143.315h-18.25V79.72h18.526c14.286,0,21.106,6.452,21.106,16.499c0,6.636-3.688,10.968-9.218,13.272
			c7.097,2.213,11.797,6.82,11.797,15.299C268.238,137.325,259.206,143.315,244.275,143.315z M243.906,89.029h-6.176v16.867h5.623
			c7.189,0,10.968-3.225,10.968-8.663C254.321,92.163,251.28,89.029,243.906,89.029z M244.091,114.559h-6.36v19.448h6.544
			c7.742,0,12.258-3.226,12.258-9.585C256.533,117.969,252.201,114.559,244.091,114.559z"/>
		<path d="M301.231,143.315l-0.922-5.808c-3.595,3.78-8.203,6.729-14.839,6.729c-7.557,0-12.626-4.607-12.626-12.35
			c0-10.784,8.848-15.485,26.82-17.235v-1.291c0-4.792-2.764-6.637-7.649-6.637c-5.161,0-10.047,1.475-14.839,3.595l-1.382-8.848
			c5.162-2.028,10.599-3.595,17.696-3.595c11.521,0,17.235,4.24,17.235,14.933v30.506H301.231z M299.664,121.104
			c-12.81,1.566-15.852,5.346-15.852,9.585c0,3.227,2.028,5.161,5.438,5.161c3.779,0,7.374-1.751,10.414-4.792V121.104z"/>
	</g>
	<g>
		<path d="M334.962,144.146c-6.452,0-13.088-2.027-17.328-4.331l1.475-9.218c4.792,3.134,10.691,5.253,16.222,5.253
			c4.793,0,7.373-1.751,7.373-4.607c0-3.134-1.936-4.425-9.031-6.175c-10.784-2.767-15.3-5.898-15.3-14.01
			c0-7.65,6.083-13.088,16.406-13.088c5.807,0,11.152,1.106,15.576,3.134l-1.476,9.217c-4.423-2.489-9.677-4.056-14.101-4.056
			c-4.147,0-6.175,1.567-6.175,4.056c0,2.396,1.659,3.687,8.295,5.439c11.52,2.949,16.036,6.081,16.036,14.469
			C352.934,138.984,346.668,144.146,334.962,144.146z"/>
	</g>
	<g>
		<path d="M396.894,123.223h-28.571c0.552,8.665,5.161,12.442,11.981,12.442c5.714,0,10.415-2.119,15.299-5.529l1.291,8.663
			c-4.792,3.319-10.6,5.438-17.789,5.438c-12.44,0-21.75-7.097-21.75-23.134c0-14.47,8.664-23.227,20.276-23.227
			c13.364,0,19.354,10.046,19.354,22.674C396.985,121.473,396.894,122.579,396.894,123.223z M377.354,105.527
			c-4.425,0-8.02,3.502-8.848,10.783h17.696C385.466,109.398,382.699,105.527,377.354,105.527z"/>
	</g>
	<g>
		<path d="M422.648,144.146c-12.352,0-21.106-8.296-21.106-22.857c0-15.485,9.677-23.411,21.474-23.411
			c5.992,0,10.415,1.567,13.919,3.779l-1.567,9.953c-3.779-2.857-7.374-4.146-11.706-4.146c-6.359,0-10.967,4.701-10.967,13.549
			c0,9.216,4.977,13.641,11.704,13.641c3.87,0,7.374-1.015,11.521-4.24l1.476,9.402
			C432.879,142.946,428.269,144.146,422.648,144.146z"/>
	</g>
	<g>
		<path d="M468.451,143.315l-0.921-5.808c-3.595,3.78-8.203,6.729-14.84,6.729c-7.558,0-12.626-4.607-12.626-12.35
			c0-10.784,8.848-15.485,26.82-17.235v-1.291c0-4.792-2.765-6.637-7.65-6.637c-5.16,0-10.046,1.475-14.838,3.595l-1.383-8.848
			c5.162-2.028,10.6-3.595,17.696-3.595c11.521,0,17.235,4.24,17.235,14.933v30.506H468.451z M466.885,121.104
			c-12.811,1.566-15.854,5.346-15.854,9.585c0,3.227,2.028,5.161,5.438,5.161c3.779,0,7.374-1.751,10.415-4.792V121.104z"/>
	</g>
	<g>
		<path d="M539.971,143.315v-29.124c0-3.872-1.384-6.544-5.438-6.544c-3.41,0-6.638,2.211-9.863,5.529v30.139h-11.061v-29.124
			c0-3.872-1.474-6.544-5.529-6.544c-3.41,0-6.636,2.211-9.861,5.529v30.139h-11.061V98.799h9.4l1.015,6.267
			c4.147-3.963,8.664-7.189,14.654-7.189c6.359,0,9.77,2.858,11.43,7.189c3.962-3.963,8.848-7.189,14.838-7.189
			c8.388,0,12.534,5.069,12.534,13.365v32.073H539.971z"/>
	</g>
	<g>
		<path d="M581.531,143.776c-4.24,0-7.65-0.736-10.321-1.752v16.774l-11.061,1.661V98.799h9.4l1.015,6.083
			c3.132-3.594,7.466-7.005,13.641-7.005c9.309,0,16.774,7.005,16.774,21.936C600.979,136.404,591.762,143.776,581.531,143.776z
			 M581.256,107.647c-3.965,0-7.097,2.489-10.046,6.266v19.079c2.671,1.291,4.792,1.937,8.57,1.937
			c5.714,0,10.047-4.701,10.047-14.471C589.827,111.886,586.232,107.647,581.256,107.647z"/>
	</g>
	<g>
		<path fill="#B3DCFF" d="M121.33,46.403c-41.082,0-73.265,52.264-76.31,96.409c12.889,22.372,43.976,30.784,76.31,30.784
			c32.329,0,63.418-8.412,76.303-30.784C194.589,98.667,162.408,46.403,121.33,46.403z"/>
		<path fill="#5ECC62" d="M168.887,101.278c-9.017-11.627-20.513-23.933-27.182-23.933c-6.665,0-25.296,32.989-33.844,32.989
			c-8.548,0-12.993-15.013-23.503-14.955c-14.317,0.081-28.352,42.175-28.352,42.175s5.804,25.729,66.521,25.729
			s65.57-25.307,65.57-25.307S181.847,117.994,168.887,101.278z"/>
		<path d="M88.789,133.96c0-4.247,3.444-7.691,7.691-7.691c4.247,0,7.69,3.444,7.69,7.691c0,4.246-3.444,7.69-7.69,7.69
			C92.233,141.65,88.789,138.206,88.789,133.96 M138.483,133.96c0,4.246,3.444,7.69,7.69,7.69c4.247,0,7.691-3.444,7.691-7.69
			c0-4.247-3.444-7.691-7.691-7.691C141.927,126.269,138.483,129.713,138.483,133.96 M137.1,145.128
			c0.598-1.154,0.149-2.565-1-3.173c-1.148-0.607-2.577-0.165-3.194,0.979c-0.127,0.236-3.217,5.794-11.389,5.794
			c-8.031,0-11.678-5.661-11.845-5.928c-0.681-1.107-2.13-1.459-3.244-0.783c-1.117,0.678-1.473,2.134-0.794,3.251
			c0.203,0.334,5.1,8.193,15.884,8.193C132.653,153.461,136.923,145.468,137.1,145.128z"/>
	</g>
	<g>
		<path fill="#00AD45" d="M108.812,124.411c-9.429,0-14.262-9.304-16.882-15.048c-2.358-5.172-2.765-13.342-9.454-13.569
			c0.658-0.26,1.29-0.415,1.883-0.415c10.51,0,14.955,14.955,23.503,14.955c8.547,0,27.179-32.989,33.844-32.989
			c1.255,0,2.671,0.443,4.205,1.231c-1.135-0.15-2.59-0.045-3.711,1.081C140.043,81.81,120.486,124.411,108.812,124.411z"/>
	</g>
</g>
</svg>
