<?xml version="1.0" encoding="utf-8"?>
<!-- Generator: Adobe Illustrator 21.1.0, SVG Export Plug-In . SVG Version: 6.00 Build 0)  -->
<!DOCTYPE svg PUBLIC "-//W3C//DTD SVG 1.1//EN" "http://www.w3.org/Graphics/SVG/1.1/DTD/svg11.dtd">
<svg version="1.1" id="Layer_1" xmlns="http://www.w3.org/2000/svg" xmlns:xlink="http://www.w3.org/1999/xlink" x="0px" y="0px"
	 viewBox="0 0 550 160" style="enable-background:new 0 0 550 160;" xml:space="preserve">
<style type="text/css">
	.st0{fill:#ECB32D;}
	.st1{fill:#63C1A0;}
	.st2{fill:#E01A59;}
	.st3{fill:#331433;}
	.st4{fill:#D62027;}
	.st5{fill:#89D3DF;}
	.st6{fill:#258B74;}
	.st7{fill:#819C3C;}
	.st8{fill:#2D333A;}
</style>
<g>
	<g>
		<path class="st0" d="M104.6,17c-2.3-6.9-9.7-10.7-16.6-8.5c-6.9,2.3-10.7,9.7-8.5,16.6l34.2,105c2.3,6.4,9.4,10.1,16,8.1
			c7.1-2.1,11.3-9.5,9-16.3C138.6,121.8,104.6,17,104.6,17z"/>
		<path class="st1" d="M51.7,34.1c-2.3-6.9-9.7-10.7-16.6-8.5c-6.9,2.3-10.7,9.7-8.5,16.6l34.2,105c2.3,6.4,9.4,10.1,16,8.1
			c7.1-2.1,11.3-9.5,9-16.3C85.7,138.9,51.7,34.1,51.7,34.1z"/>
		<path class="st2" d="M147.6,103.9c6.9-2.3,10.7-9.7,8.5-16.6c-2.3-6.9-9.7-10.7-16.6-8.5L34.3,113c-6.4,2.3-10.1,9.4-8.1,16
			c2.1,7.1,9.5,11.3,16.3,9C42.7,138,147.6,103.9,147.6,103.9z"/>
		<path class="st3" d="M56.2,133.7c6.8-2.2,15.7-5.1,25.2-8.1c-2.2-6.8-5.1-15.7-8.1-25.2l-25.2,8.1L56.2,133.7z"/>
		<path class="st4" d="M109.2,116.4c9.5-3,18.4-6,25.2-8.1c-2.2-6.8-5.1-15.7-8.1-25.2l-25.2,8.1L109.2,116.4z"/>
		<path class="st5" d="M130.3,51c6.9-2.3,10.7-9.7,8.5-16.6c-2.3-6.9-9.7-10.7-16.6-8.5L17.2,60c-6.4,2.3-10.1,9.4-8.1,16
			c2.1,7.1,9.5,11.3,16.3,9C25.6,85.1,130.3,51,130.3,51z"/>
		<path class="st6" d="M39.1,80.7c6.8-2.2,15.7-5.1,25.2-8.1c-3-9.5-6-18.4-8.1-25.2l-25.2,8.1L39.1,80.7z"/>
		<path class="st7" d="M91.9,63.5c9.5-3,18.4-6,25.2-8.1c-3-9.5-6-18.4-8.1-25.2l-25.2,8.1L91.9,63.5z"/>
	</g>
</g>
<path class="st8" d="M254.1,44.6c4.6,2.1,5,3.5,1.3,10.5c-3.8,7.1-4.6,7.5-9.2,5.7c-5.7-2.4-13.1-4.3-17.9-4.3
	c-7.8,0-12.9,2.8-12.9,7.1c0,14,44.5,6.4,44.5,36.1c0,15-12.9,24.9-32.1,24.9c-10.1,0-22.6-3.4-31.2-7.8c-4.3-2.2-4.6-3.4-0.8-10.6
	c3.2-6.2,4.3-6.9,8.9-5c7.3,3.2,16.6,5.7,22.9,5.7c7.1,0,11.8-2.9,11.8-7.1c0-13.5-45.3-7.1-45.3-35.8c0-15.3,12.8-25.5,31.8-25.5
	C235,38.4,246.3,41.1,254.1,44.6z"/>
<path class="st8" d="M290,9.3v110.8c0,1.7-1.8,3.4-4.3,3.4h-11.7c-2.6,0-4.3-1.8-4.3-3.4V9.3c0-5.5,1.6-6,10.1-6
	C289.7,3.3,290,4,290,9.3z"/>
<path class="st8" d="M372.9,71.6v47.8c0,2.6-1.8,4.3-4.3,4.3h-11.5c-2.7,0-4.5-1.9-4.3-4.6l0.1-5.1c-6.2,6.9-15.2,10.6-24.2,10.6
	c-17.4,0-29-10.1-29-25c0-15.9,13.1-26.7,32.9-26.7c7.5,0,14.3,1.3,19.9,3.6v-5.5c0-8.7-6.9-14-18.7-14c-5.5,0-12.3,2.2-17.6,5.3
	c-4.1,2.3-5.1,2.2-9.6-4.5c-4.4-6.7-4.3-7.9,0-10.7c8.1-5.2,19.1-8.6,29.2-8.6C358.6,38.4,372.9,50.7,372.9,71.6z M319.2,99.3
	c0,5.7,4.9,9.5,12,9.5c8.7,0,16.8-4.3,21.4-11.4v-7.4c-4.6-1.8-10.3-2.8-15.3-2.8C326.4,87.1,319.2,92.2,319.2,99.3z"/>
<path class="st8" d="M451.9,44.7c4.3,2.4,4.4,3.8-0.2,10.9c-4.4,6.8-5.1,7.2-9.8,4.9c-3.5-1.8-9.2-3.4-13.9-3.4
	c-14.6,0-24.3,9.6-24.3,24.2c0,15.1,9.7,25.3,24.3,25.3c5.1,0,11.4-1.9,15.6-4.3c4.3-2.4,5.1-2.3,9.6,4.3c4,6.1,4,7.5,0.4,10.1
	c-6.6,4.5-16.8,7.9-25.9,7.9c-27,0-45.1-17.3-45.1-43.3c0-25.8,18.1-42.9,45.3-42.9C436.1,38.4,445.8,41.2,451.9,44.7z"/>
<path class="st8" d="M540.1,113.1c3.4,4.3,2.1,5.8-6.4,8.9c-8.6,3.2-9.8,2.9-12.9-1l-24.2-32.2l-10.8,10.5v20.9
	c0,1.7-1.8,3.4-4.3,3.4h-11.7c-2.6,0-4.3-1.8-4.3-3.4V9.3c0-5.5,1.6-6,10.1-6c9.8,0,10.1,0.7,10.1,6v62.9l33.1-31.7
	c3.6-3.4,5.7-3.2,12.1,1.1c7.2,4.6,7.7,6,4.3,9.2L510.7,75L540.1,113.1z"/>
<g>
</g>
<g>
</g>
<g>
</g>
<g>
</g>
<g>
</g>
<g>
</g>
</svg>
